<?xml version="1.0" encoding="UTF-8"?>
<svg version="1.1" xmlns="http://www.w3.org/2000/svg" width="512" height="512">
<path d="M0 0 C0.84671768 -0.00970322 1.69343536 -0.01940643 2.56581116 -0.02940369 C5.29652715 -0.05424298 8.02699489 -0.06692485 10.7578125 -0.07421875 C11.69255402 -0.07683716 12.62729553 -0.07945557 13.59036255 -0.08215332 C29.38021186 -0.08688208 44.36583838 1.16213309 59.8828125 4.23828125 C61.58945119 4.5438672 63.29646644 4.84735995 65.00390625 5.1484375 C77.01041249 7.36476184 88.40222811 11.1413514 99.8828125 15.23828125 C100.61661133 15.49367676 101.35041016 15.74907227 102.10644531 16.01220703 C115.67398911 20.73588611 128.42919721 26.71189958 140.4296875 34.65234375 C142.76089529 36.15946216 145.12269603 37.49372075 147.5703125 38.80078125 C151.33320502 40.84349433 154.66890963 43.21233989 158.046875 45.8359375 C159.62675569 47.04269743 161.28078746 48.15124449 162.9453125 49.23828125 C166.50348449 51.66086643 169.6597606 54.39319919 172.8828125 57.23828125 C173.47707031 57.75132813 174.07132812 58.264375 174.68359375 58.79296875 C176.76362478 60.59307842 178.82469143 62.41315502 180.8828125 64.23828125 C181.76839844 65.01816406 182.65398437 65.79804687 183.56640625 66.6015625 C189.38515558 71.81757286 194.90991097 77.22628758 200.2578125 82.92578125 C201.11366943 83.83360352 201.11366943 83.83360352 201.98681641 84.75976562 C205.4484346 88.49778679 208.58842334 92.37656883 211.59570312 96.48901367 C212.69165459 97.97848489 213.84428323 99.42598039 215.0078125 100.86328125 C217.13679497 103.55999238 218.98905878 106.37059705 220.8828125 109.23828125 C222.02760931 110.84318778 223.17354016 112.44728572 224.3203125 114.05078125 C230.09907748 122.31490489 234.45303701 131.25175189 238.90625 140.2734375 C240.06528979 142.61652034 241.25158845 144.92816211 242.484375 147.234375 C247.39158047 156.48458851 250.64157514 166.30979296 253.8828125 176.23828125 C254.20902588 177.2010498 254.53523926 178.16381836 254.87133789 179.15576172 C257.57157376 187.42463005 259.25101107 195.69417868 260.69311523 204.25097656 C261.07244858 206.50095119 261.4638846 208.74856407 261.85742188 210.99609375 C263.61339245 221.14905676 265.02191131 231.04729178 265.12109375 241.35546875 C265.13079697 242.20218643 265.14050018 243.04890411 265.15049744 243.92127991 C265.17533673 246.6519959 265.1880186 249.38246364 265.1953125 252.11328125 C265.19793091 253.04802277 265.20054932 253.98276428 265.20324707 254.9458313 C265.20797583 270.73568061 263.95896066 285.72130713 260.8828125 301.23828125 C260.57722655 302.94491994 260.2737338 304.65193519 259.97265625 306.359375 C257.75633191 318.36588124 253.97974235 329.75769686 249.8828125 341.23828125 C249.62741699 341.97208008 249.37202148 342.70587891 249.10888672 343.46191406 C244.38520764 357.02945786 238.40919417 369.78466596 230.46875 381.78515625 C228.96163159 384.11636404 227.627373 386.47816478 226.3203125 388.92578125 C224.27759942 392.68867377 221.90875386 396.02437838 219.28515625 399.40234375 C218.07839632 400.98222444 216.96984926 402.63625621 215.8828125 404.30078125 C213.46022732 407.85895324 210.72789456 411.01522935 207.8828125 414.23828125 C207.36976563 414.83253906 206.85671875 415.42679687 206.328125 416.0390625 C204.52801533 418.11909353 202.70793873 420.18016018 200.8828125 422.23828125 C200.10292969 423.12386719 199.32304687 424.00945312 198.51953125 424.921875 C193.30352089 430.74062433 187.89480617 436.26537972 182.1953125 441.61328125 C181.59009766 442.18385254 180.98488281 442.75442383 180.36132812 443.34228516 C176.62330696 446.80390335 172.74452492 449.94389209 168.63208008 452.95117188 C167.14260886 454.04712334 165.69511336 455.19975198 164.2578125 456.36328125 C161.56110137 458.49226372 158.7504967 460.34452753 155.8828125 462.23828125 C154.27790597 463.38307806 152.67380803 464.52900891 151.0703125 465.67578125 C142.80618886 471.45454623 133.86934186 475.80850576 124.84765625 480.26171875 C122.50457341 481.42075854 120.19293164 482.6070572 117.88671875 483.83984375 C108.63650524 488.74704922 98.81130079 491.99704389 88.8828125 495.23828125 C87.92004395 495.56449463 86.95727539 495.89070801 85.96533203 496.22680664 C77.6964637 498.92704251 69.42691507 500.60647982 60.87011719 502.04858398 C58.62014256 502.42791733 56.37252968 502.81935335 54.125 503.21289062 C43.97203699 504.9688612 34.07380197 506.37738006 23.765625 506.4765625 C22.91890732 506.48626572 22.07218964 506.49596893 21.19981384 506.50596619 C18.46909785 506.53080548 15.73863011 506.54348735 13.0078125 506.55078125 C12.07307098 506.55339966 11.13832947 506.55601807 10.17526245 506.55871582 C-5.61458686 506.56344458 -20.60021338 505.31442941 -36.1171875 502.23828125 C-37.82382619 501.9326953 -39.53084144 501.62920255 -41.23828125 501.328125 C-53.24478749 499.11180066 -64.63660311 495.3352111 -76.1171875 491.23828125 C-76.85098633 490.98288574 -77.58478516 490.72749023 -78.34082031 490.46435547 C-91.90836411 485.74067639 -104.66357221 479.76466292 -116.6640625 471.82421875 C-118.99527029 470.31710034 -121.35707103 468.98284175 -123.8046875 467.67578125 C-127.56758002 465.63306817 -130.90328463 463.26422261 -134.28125 460.640625 C-135.86113069 459.43386507 -137.51516246 458.32531801 -139.1796875 457.23828125 C-142.73785949 454.81569607 -145.8941356 452.08336331 -149.1171875 449.23828125 C-149.71144531 448.72523438 -150.30570312 448.2121875 -150.91796875 447.68359375 C-152.99799978 445.88348408 -155.05906643 444.06340748 -157.1171875 442.23828125 C-158.00277344 441.45839844 -158.88835937 440.67851562 -159.80078125 439.875 C-165.61953058 434.65898964 -171.14428597 429.25027492 -176.4921875 423.55078125 C-177.06275879 422.94556641 -177.63333008 422.34035156 -178.22119141 421.71679688 C-181.6828096 417.97877571 -184.82279834 414.09999367 -187.83007812 409.98754883 C-188.92602959 408.49807761 -190.07865823 407.05058211 -191.2421875 405.61328125 C-193.37116997 402.91657012 -195.22343378 400.10596545 -197.1171875 397.23828125 C-198.26198431 395.63337472 -199.40791516 394.02927678 -200.5546875 392.42578125 C-206.33345248 384.16165761 -210.68741201 375.22481061 -215.140625 366.203125 C-216.29966479 363.86004216 -217.48596345 361.54840039 -218.71875 359.2421875 C-223.62595547 349.99197399 -226.87595014 340.16676954 -230.1171875 330.23828125 C-230.60650757 328.79412842 -230.60650757 328.79412842 -231.10571289 327.32080078 C-233.80594876 319.05193245 -235.48538607 310.78238382 -236.92749023 302.22558594 C-237.30682358 299.97561131 -237.6982596 297.72799843 -238.09179688 295.48046875 C-239.84776745 285.32750574 -241.25628631 275.42927072 -241.35546875 265.12109375 C-241.36517197 264.27437607 -241.37487518 263.42765839 -241.38487244 262.55528259 C-241.40971173 259.8245666 -241.4223936 257.09409886 -241.4296875 254.36328125 C-241.43230591 253.42853973 -241.43492432 252.49379822 -241.43762207 251.5307312 C-241.44235083 235.74088189 -240.19333566 220.75525537 -237.1171875 205.23828125 C-236.81160155 203.53164256 -236.5081088 201.82462731 -236.20703125 200.1171875 C-233.99070691 188.11068126 -230.21411735 176.71886564 -226.1171875 165.23828125 C-225.86179199 164.50448242 -225.60639648 163.77068359 -225.34326172 163.01464844 C-220.61958264 149.44710464 -214.64356917 136.69189654 -206.703125 124.69140625 C-205.19600659 122.36019846 -203.861748 119.99839772 -202.5546875 117.55078125 C-200.51197442 113.78788873 -198.14312886 110.45218412 -195.51953125 107.07421875 C-194.31277132 105.49433806 -193.20422426 103.84030629 -192.1171875 102.17578125 C-189.69460232 98.61760926 -186.96226956 95.46133315 -184.1171875 92.23828125 C-183.60414063 91.64402344 -183.09109375 91.04976563 -182.5625 90.4375 C-180.76239033 88.35746897 -178.94231373 86.29640232 -177.1171875 84.23828125 C-176.33730469 83.35269531 -175.55742187 82.46710938 -174.75390625 81.5546875 C-169.53789589 75.73593817 -164.12918117 70.21118278 -158.4296875 64.86328125 C-157.82447266 64.29270996 -157.21925781 63.72213867 -156.59570312 63.13427734 C-152.85768196 59.67265915 -148.97889992 56.53267041 -144.86645508 53.52539062 C-143.37698386 52.42943916 -141.92948836 51.27681052 -140.4921875 50.11328125 C-137.79547637 47.98429878 -134.9848717 46.13203497 -132.1171875 44.23828125 C-130.51228097 43.09348444 -128.90818303 41.94755359 -127.3046875 40.80078125 C-119.04056386 35.02201627 -110.10371686 30.66805674 -101.08203125 26.21484375 C-98.73894841 25.05580396 -96.42730664 23.8695053 -94.12109375 22.63671875 C-84.87088024 17.72951328 -75.04567579 14.47951861 -65.1171875 11.23828125 C-63.67303467 10.74896118 -63.67303467 10.74896118 -62.19970703 10.24975586 C-53.9308387 7.54951999 -45.66129007 5.87008268 -37.10449219 4.42797852 C-34.85451756 4.04864517 -32.60690468 3.65720915 -30.359375 3.26367188 C-20.20641199 1.5077013 -10.30817697 0.09918244 0 0 Z M-92.1171875 122.23828125 C-92.21653898 124.25778334 -92.24518258 126.2807904 -92.24658203 128.30273438 C-92.24973419 129.60078003 -92.25288635 130.89882568 -92.25613403 132.23620605 C-92.25434425 133.66398146 -92.2522933 135.09175656 -92.25 136.51953125 C-92.25067308 137.97302263 -92.25164314 139.42651389 -92.25289917 140.88000488 C-92.25437596 143.92994252 -92.2522222 146.97985091 -92.24755859 150.02978516 C-92.2418613 153.94758684 -92.24514041 157.86532003 -92.25113106 161.7831192 C-92.25473719 164.78558879 -92.25359785 167.78804202 -92.25100327 170.79051208 C-92.25033414 172.23546863 -92.25116192 173.68042664 -92.25348282 175.12538147 C-92.25601015 177.14153008 -92.25147802 179.15768387 -92.24658203 181.17382812 C-92.24578644 182.32330933 -92.24499084 183.47279053 -92.24417114 184.65710449 C-92.41016838 187.16913631 -92.41016838 187.16913631 -91.1171875 188.23828125 C-89.46192927 188.33656925 -87.80246078 188.36460101 -86.14428711 188.36526489 C-84.52887527 188.36949463 -84.52887527 188.36949463 -82.88082886 188.37380981 C-81.68910065 188.37178558 -80.49737244 188.36976135 -79.26953125 188.36767578 C-78.02253448 188.3694281 -76.77553772 188.37118042 -75.49075317 188.37298584 C-72.06108146 188.37664414 -68.63146971 188.37577086 -65.2018013 188.37260675 C-61.62012905 188.37008286 -58.03845945 188.37242077 -54.45678711 188.37399292 C-48.44091326 188.37581453 -42.42505167 188.37340853 -36.40917969 188.36865234 C-29.44446423 188.36320974 -22.47977804 188.3649724 -15.51506329 188.37047875 C-9.54564761 188.37501012 -3.57624076 188.37566031 2.39317608 188.37304008 C5.9629788 188.37147744 9.53276774 188.37128318 13.10256958 188.37457657 C17.08011013 188.3779895 21.05761764 188.37326514 25.03515625 188.36767578 C26.82274857 188.37071213 26.82274857 188.37071213 28.64645386 188.37380981 C29.72339508 188.37098999 30.8003363 188.36817017 31.90991211 188.36526489 C33.32245522 188.36469935 33.32245522 188.36469935 34.76353455 188.36412239 C36.8679011 188.47450926 36.8679011 188.47450926 37.8828125 187.23828125 C37.98211619 185.2547013 38.0108071 183.26755775 38.01220703 181.28149414 C38.01693527 179.36929832 38.01693527 179.36929832 38.02175903 177.41847229 C38.01996906 176.01596035 38.01791806 174.61344871 38.015625 173.2109375 C38.01629815 171.782262 38.01726827 170.35358661 38.01852417 168.9249115 C38.0200011 165.9262483 38.01784707 162.92761483 38.01318359 159.92895508 C38.00749144 156.08075367 38.01076207 152.23262209 38.01675606 148.38442326 C38.0203662 145.43252535 38.01922091 142.48064405 38.01662827 139.52874565 C38.01595998 138.10973541 38.01678398 136.69072366 38.01910782 135.27171516 C38.02164113 133.28929802 38.01709681 131.30687562 38.01220703 129.32446289 C38.01141144 128.19496719 38.01061584 127.0654715 38.00979614 125.90174866 C38.06381347 123.26352335 38.06381347 123.26352335 36.8828125 121.23828125 C20.21095798 121.21495243 3.53910874 121.19730216 -13.13275814 121.18646908 C-20.87326032 121.18130608 -28.61375237 121.17426332 -36.35424805 121.1628418 C-43.09845901 121.15289506 -49.84266265 121.14642785 -56.58688074 121.14419276 C-60.16005616 121.14288563 -63.7332106 121.13979967 -67.30637932 121.13255119 C-71.28881101 121.12453753 -75.27122191 121.12429011 -79.25366211 121.12475586 C-80.44696136 121.12116058 -81.64026062 121.11756531 -82.86972046 121.11386108 C-84.48730003 121.11592308 -84.48730003 121.11592308 -86.13755798 121.11802673 C-87.55204932 121.11664404 -87.55204932 121.11664404 -88.99511623 121.11523342 C-91.10198594 121.0014169 -91.10198594 121.0014169 -92.1171875 122.23828125 Z M-92.1171875 219.23828125 C-92.21653898 221.25778334 -92.24518258 223.2807904 -92.24658203 225.30273438 C-92.24973419 226.60078003 -92.25288635 227.89882568 -92.25613403 229.23620605 C-92.25434425 230.66398146 -92.2522933 232.09175656 -92.25 233.51953125 C-92.25067308 234.97302263 -92.25164314 236.42651389 -92.25289917 237.88000488 C-92.25437596 240.92994252 -92.2522222 243.97985091 -92.24755859 247.02978516 C-92.2418613 250.94758684 -92.24514041 254.86532003 -92.25113106 258.7831192 C-92.25473719 261.78558879 -92.25359785 264.78804202 -92.25100327 267.79051208 C-92.25033414 269.23546863 -92.25116192 270.68042664 -92.25348282 272.12538147 C-92.25601015 274.14153008 -92.25147802 276.15768387 -92.24658203 278.17382812 C-92.24578644 279.32330933 -92.24499084 280.47279053 -92.24417114 281.65710449 C-92.41016838 284.16913631 -92.41016838 284.16913631 -91.1171875 285.23828125 C-89.7306192 285.33476192 -88.33916144 285.36200021 -86.94924068 285.36132908 C-86.04505018 285.36332013 -85.14085968 285.36531118 -84.20926946 285.36736256 C-83.2044267 285.36444972 -82.19958393 285.36153688 -81.16429138 285.35853577 C-79.57654965 285.3598174 -79.57654965 285.3598174 -77.95673233 285.36112493 C-74.38056194 285.36278289 -70.80443761 285.35725323 -67.22827148 285.35180664 C-64.6764323 285.35152481 -62.12459304 285.35168242 -59.57275391 285.35224915 C-54.06373436 285.35247747 -48.55472987 285.34962595 -43.04571342 285.34401131 C-35.08051447 285.33589865 -27.11532124 285.33328133 -19.1501186 285.33202332 C-6.22841241 285.32983243 6.69328747 285.32317134 19.61499023 285.3137207 C32.17032845 285.30454754 44.72566497 285.29746624 57.28100586 285.29321289 C58.44105956 285.29281881 58.44105956 285.29281881 59.62454868 285.29241676 C63.50415249 285.29111176 67.38375631 285.28984804 71.26336014 285.28860486 C103.46984984 285.27823109 135.67632784 285.25979217 167.8828125 285.23828125 C167.8828125 263.12828125 167.8828125 241.01828125 167.8828125 218.23828125 C134.90476428 218.21625499 101.92672318 218.19778347 68.94866982 218.18721592 C65.05944849 218.18596514 61.17022717 218.18467083 57.28100586 218.18334961 C56.50669894 218.1830873 55.73239203 218.18282499 54.93462127 218.18255473 C42.3805333 218.17819786 29.82644989 218.17031023 17.27236462 218.16112845 C4.40038883 218.15179237 -8.47158457 218.14622574 -21.34356362 218.14419276 C-29.29271143 218.14281743 -37.24184637 218.13846634 -45.19099022 218.13036478 C-51.27603147 218.12447722 -57.36106153 218.12382217 -63.44610596 218.12517357 C-65.94998822 218.12489704 -68.45387094 218.12288924 -70.95775032 218.11907578 C-74.3599491 218.1141456 -77.76209147 218.11528045 -81.16429138 218.11802673 C-82.67155553 218.11365747 -82.67155553 218.11365747 -84.20926946 218.10919994 C-85.11345997 218.11119099 -86.01765047 218.11318204 -86.94924068 218.11523342 C-88.12884189 218.11466384 -88.12884189 218.11466384 -89.33227342 218.11408275 C-91.14145846 218.04377964 -91.14145846 218.04377964 -92.1171875 219.23828125 Z M-92.1171875 317.23828125 C-92.21649283 319.22715619 -92.24518212 321.21958542 -92.24658203 323.2109375 C-92.24973419 324.4889624 -92.25288635 325.7669873 -92.25613403 327.08374023 C-92.25434425 328.48942092 -92.2522933 329.8951013 -92.25 331.30078125 C-92.25067308 332.73185238 -92.25164314 334.1629234 -92.25289917 335.59399414 C-92.25437594 338.59685349 -92.25222226 341.59968315 -92.24755859 344.60253906 C-92.24186131 348.45980696 -92.24514042 352.31700529 -92.25113106 356.17427063 C-92.25473724 359.13041716 -92.25359782 362.08654708 -92.25100327 365.04269409 C-92.25033415 366.46532194 -92.25116187 367.88795128 -92.25348282 369.31057739 C-92.25601024 371.29559299 -92.25147792 373.28061384 -92.24658203 375.265625 C-92.24578644 376.39734131 -92.24499084 377.52905762 -92.24417114 378.69506836 C-92.40552732 381.17359636 -92.40552732 381.17359636 -91.1171875 382.23828125 C-88.61305233 382.33601237 -86.13652559 382.36823806 -83.63194275 382.35853577 C-82.83887917 382.35939019 -82.04581558 382.36024462 -81.22871977 382.36112493 C-78.55081354 382.36278215 -75.87296889 382.35725444 -73.19506836 382.35180664 C-71.28361513 382.35152479 -69.37216179 382.35168245 -67.46070862 382.35224915 C-62.25431291 382.35253722 -57.04794002 382.34663886 -51.84154963 382.33967519 C-46.40694591 382.33344333 -40.97234173 382.33283799 -35.53773499 382.33164978 C-25.23879992 382.32853597 -14.93987542 382.32032191 -4.64094502 382.31030029 C7.08074007 382.2991407 18.80242565 382.29362909 30.52411473 382.28860486 C54.64368786 382.27813933 78.76324651 382.25979323 102.8828125 382.23828125 C102.8828125 360.45828125 102.8828125 338.67828125 102.8828125 316.23828125 C77.605624 316.2157368 52.32844359 316.19730358 27.0512476 316.18646908 C15.31549279 316.18130547 3.57974466 316.17426154 -8.15600586 316.1628418 C-18.38090585 316.15289693 -28.60580101 316.1464283 -38.8307057 316.14419276 C-44.24829269 316.14288531 -49.66586584 316.13979734 -55.08344841 316.13255119 C-60.17637072 316.12579409 -65.26927342 316.12366365 -70.36219978 316.12517357 C-72.23718497 316.1248971 -74.11217077 316.12289015 -75.9871521 316.11907578 C-78.53544022 316.11414336 -81.0836531 316.11528128 -83.63194275 316.11802673 C-84.75983944 316.11365747 -84.75983944 316.11365747 -85.91052192 316.10919994 C-89.30054529 315.81700871 -89.30054529 315.81700871 -92.1171875 317.23828125 Z " fill="#F6242E" transform="translate(244.1171875,2.76171875)"/>
</svg>
